<svg xmlns="http://www.w3.org/2000/svg" width="150px" height="60px" viewBox="0 0 1000 400" version="1.1"><path d="" stroke="none" fill="#000" fill-rule="evenodd"/><path d="M 522.337 55.565 C 521.984 56.485, 523.023 58.854, 524.859 61.315 C 531.936 70.801, 543.046 88.098, 547.779 97 C 557.344 114.989, 561.299 130.642, 562.656 155.883 L 563.307 168 324.654 168 L 86 168 86 177.500 L 86 187 202.500 187 L 319 187 319 206.432 L 319 225.864 316 228 C 313.200 229.993, 313 230.565, 313 236.552 L 313 242.967 319.750 240.410 C 348.240 229.619, 356.060 227.774, 374 227.607 C 388.045 227.476, 391.630 228.591, 398.718 235.295 L 404 240.290 404 246.687 L 404 253.084 399.664 250.543 C 392.934 246.599, 381.153 243.998, 370.090 244.013 C 351.158 244.039, 333.327 249.794, 319.301 260.404 C 295.042 278.755, 291.754 299.343, 310.317 316.665 C 322.027 327.593, 332.695 331.167, 353.500 331.129 C 370.598 331.098, 379.132 329.184, 393.271 322.208 L 403.043 317.387 403.831 320.428 C 404.536 323.149, 405.771 323.963, 415.560 328.159 C 421.577 330.738, 427.063 332.883, 427.750 332.924 C 429.309 333.019, 429.509 264.810, 427.993 250 C 425.787 228.447, 421.977 219.485, 412.294 213.072 C 403.784 207.434, 395.446 205.519, 379.500 205.538 C 366.827 205.553, 351.325 207.629, 341.750 210.593 C 340.150 211.088, 340 210.100, 340 199.067 L 340 187 451.500 187 L 563 187 562.998 215.750 L 562.996 244.500 551.461 232.297 C 538.394 218.475, 528.356 211.117, 518.351 208.027 C 506.899 204.490, 494.031 205.820, 482.026 211.782 C 471.426 217.046, 458.237 231.571, 450.956 246 C 441.872 263.999, 449.026 287.020, 470.142 307.738 C 479.041 316.470, 486.190 321.652, 495.606 326.198 C 517.175 336.610, 535.462 331.512, 555.830 309.407 L 563 301.625 563 311.591 L 563 321.557 575.250 326.744 C 581.987 329.597, 588.288 332.220, 589.250 332.572 C 590.907 333.180, 591 329.310, 591 260.107 L 591 187 606.493 187 L 621.986 187 622.243 252.743 L 622.500 318.486 636 325.700 C 643.425 329.668, 649.815 332.934, 650.201 332.957 C 650.586 332.981, 651.036 317.788, 651.201 299.195 L 651.500 265.390 655.238 257.829 C 660.060 248.077, 669.692 237.663, 680.605 230.402 C 700.524 217.148, 718.298 216.353, 728.489 228.259 C 734.469 235.245, 736.306 241.659, 736.290 255.500 C 736.278 266.167, 735.949 268.449, 733.328 276.044 C 729.675 286.631, 725.846 292.425, 713.047 306.730 C 707.521 312.907, 703 318.361, 703 318.851 C 703 319.342, 708.407 322.976, 715.016 326.928 L 727.033 334.113 729.766 332.155 C 733.965 329.148, 746.244 316.066, 749.877 310.730 C 765.424 287.890, 765.831 261.404, 751.026 236 C 745.798 227.030, 735.641 216.592, 727.829 212.160 C 719.087 207.202, 707.487 204.642, 696.537 205.257 C 681.774 206.085, 671.972 210.906, 658.750 223.842 L 652 230.446 652 208.723 L 652 187 724.500 187 L 797 187 797 205.804 L 797 224.608 793.500 228 C 790.394 231.010, 790 231.971, 790 236.530 C 790 239.355, 790.247 241.913, 790.548 242.214 C 790.849 242.516, 794.562 241.431, 798.798 239.805 C 824.024 230.119, 834.877 227.646, 852.500 227.571 C 865.688 227.514, 869.876 228.870, 876.585 235.368 C 881.994 240.607, 882 240.621, 882 246.821 L 882 253.029 876.010 250.005 C 867.759 245.840, 859.237 244.032, 847.770 244.015 C 823.737 243.978, 803.242 252.460, 787.795 268.834 C 778.911 278.252, 776.490 283.448, 776.536 293 C 776.580 302.315, 779.152 308.109, 786.511 315.468 C 792.900 321.856, 798.490 325.171, 808.610 328.571 C 815.609 330.923, 818.024 331.220, 830 331.208 C 847.967 331.189, 860.240 328.317, 873.928 320.929 C 876.913 319.318, 879.689 318, 880.098 318 C 880.507 318, 881.130 319.317, 881.484 320.928 C 881.990 323.231, 883.020 324.176, 886.314 325.357 C 888.616 326.183, 893.809 328.240, 897.854 329.929 C 901.898 331.618, 905.386 333, 905.604 333 C 906.536 333, 905.916 250.541, 904.930 243.451 C 903.174 230.830, 900.548 223.826, 895.442 218.147 C 883.937 205.350, 861.080 201.938, 830 208.379 C 823.675 209.690, 818.163 210.564, 817.750 210.322 C 817.337 210.080, 817 204.734, 817 198.441 L 817 187 867 187 L 917 187 917 177.500 L 917 168 784.500 168 L 652 168 652 164.932 C 652 158.399, 648.621 139.082, 645.977 130.500 C 636.725 100.468, 624.138 79.952, 608.610 69.595 C 604.846 67.083, 604.228 67, 589.360 67 C 580.912 67, 574.033 67.338, 574.074 67.750 C 574.115 68.162, 576.472 70.321, 579.312 72.547 C 588.833 80.009, 602.788 97.711, 609.233 110.500 C 615.739 123.413, 620.251 141.032, 621.589 158.755 L 622.287 168 606.789 168 L 591.291 168 590.726 153.250 C 589.500 121.166, 580.179 91.582, 563.867 68 C 560.634 63.325, 556.887 58.263, 555.542 56.750 L 553.096 54 538.017 54 C 525.258 54, 522.845 54.241, 522.337 55.565 M 83.282 90.750 C 84.236 95.897, 92.131 113.492, 94.421 115.574 C 95.676 116.715, 99.808 118.936, 103.602 120.510 C 114.849 125.174, 117.995 128.339, 124.961 142.003 L 131.077 154 135.139 154 L 139.201 154 138.680 149.750 C 138.156 145.484, 126.469 110.380, 124.229 106.347 C 122.682 103.561, 116.696 98.873, 111 95.985 C 104.241 92.559, 90.081 88, 86.199 88 C 83.005 88, 82.807 88.186, 83.282 90.750 M 105 263.419 L 105 321.838 113.750 326.587 C 118.563 329.199, 124.179 332.385, 126.230 333.668 C 128.282 334.950, 130.194 336, 130.480 336 C 130.766 336, 131 306.525, 131 270.500 L 131 205 118 205 L 105 205 105 263.419 M 224.350 206.985 C 215.210 209.381, 202.689 214.519, 197.300 218.085 L 193.100 220.865 192.800 215.682 L 192.500 210.500 178 210.500 L 163.500 210.500 163.262 266.500 L 163.024 322.500 176.970 329.750 C 184.641 333.738, 191.361 337, 191.903 337 C 192.529 337, 193.002 323.191, 193.197 299.250 C 193.483 264.122, 193.647 261.109, 195.555 255.873 C 198.952 246.555, 204.046 238.983, 213 229.943 C 227.952 214.848, 240.313 210.068, 251.715 214.973 C 254.544 216.190, 257.677 218.091, 258.679 219.198 C 261.424 222.232, 260.934 228.990, 257.605 234.021 C 254.074 239.357, 244.407 245.554, 237.183 247.113 C 234.057 247.788, 231.331 248.469, 231.125 248.628 C 230.919 248.786, 235.839 254.672, 242.057 261.708 C 248.276 268.744, 253.487 274.667, 253.637 274.871 C 254.406 275.918, 264.364 268.829, 270.648 262.761 C 287.227 246.754, 288.251 234.006, 274.083 219.987 C 270.462 216.404, 265.216 212.257, 262.425 210.770 C 251.369 204.879, 237.602 203.510, 224.350 206.985 M 512.500 229.406 C 500.558 233.202, 484.586 244.481, 477.478 254.137 C 468.107 266.867, 466.328 283.099, 472.852 296.352 C 481.989 314.911, 499.632 318.041, 519.743 304.671 C 533.615 295.449, 549.638 275.970, 553.989 263.039 C 558.302 250.224, 553.122 240.098, 538.500 232.759 C 529.547 228.265, 519.972 227.030, 512.500 229.406 M 353.774 267.017 C 340.897 269.053, 325.915 277.729, 317.107 288.252 C 309.489 297.353, 308.199 302.955, 312.750 307.177 C 316.451 310.610, 320.956 311.998, 330.500 312.647 C 353.862 314.234, 382.897 303.888, 399.250 288.147 C 404.972 282.639, 405.224 280.282, 400.529 276.160 C 392.596 269.195, 369.083 264.597, 353.774 267.017 M 833.500 266.632 C 814.053 269.638, 792.978 284.593, 788.187 298.788 C 782.545 315.505, 825.692 317.791, 856.237 302.394 C 863.065 298.952, 874.829 290.832, 878.425 287.078 C 884.791 280.434, 880.675 275.135, 865.149 269.985 C 857.598 267.481, 853.434 266.718, 846 266.477 C 840.775 266.307, 835.150 266.377, 833.500 266.632" stroke="none" fill="#000" fill-rule="evenodd"/></svg>