<?xml version="1.0" standalone="no"?>
<!DOCTYPE svg PUBLIC "-//W3C//DTD SVG 20010904//EN"
 "http://www.w3.org/TR/2001/REC-SVG-20010904/DTD/svg10.dtd">
<svg version="1.0" xmlns="http://www.w3.org/2000/svg"
 width="266.000000pt" height="266.000000pt" viewBox="0 0 266.000000 266.000000"
 preserveAspectRatio="xMidYMid meet">

<g transform="translate(0.000000,266.000000) scale(0.100000,-0.100000)"
fill="#000000" stroke="none">
<path d="M1173 2335 c-474 -74 -837 -476 -860 -950 -15 -317 81 -570 302 -790
105 -105 204 -170 351 -231 231 -96 426 -126 667 -105 126 11 339 45 437 71
120 31 382 94 475 113 l110 23 3 47 3 48 -38 -6 c-21 -4 -55 -11 -75 -15 -28
-6 -38 -4 -42 7 -8 19 -8 217 0 237 3 9 35 22 80 32 l74 18 0 44 0 44 -42 -7
c-24 -4 -117 -25 -207 -46 -91 -21 -166 -37 -168 -35 -2 2 9 32 25 67 147 327
115 694 -86 998 -20 31 -70 90 -110 133 -231 242 -566 355 -899 303z m233
-190 c130 -39 202 -178 164 -316 -14 -51 -76 -118 -134 -145 -92 -43 -198 -25
-269 44 -58 55 -78 102 -78 177 0 114 59 200 163 236 65 22 90 23 154 4z
m-539 -410 c59 -25 96 -59 128 -116 74 -138 3 -305 -150 -354 -121 -38 -243
21 -298 144 -23 53 -20 157 7 208 24 48 83 100 130 117 55 19 138 20 183 1z
m1104 3 c55 -16 118 -73 145 -132 56 -120 6 -265 -109 -320 -75 -36 -116 -41
-182 -22 -134 40 -210 175 -171 307 39 136 179 209 317 167z m-587 -170 c9
-12 16 -32 16 -44 0 -23 -42 -64 -65 -64 -25 0 -65 41 -65 67 0 59 81 88 114
41z m-202 -135 c38 -34 8 -113 -44 -113 -29 0 -68 38 -68 67 0 52 72 82 112
46z m397 -9 c12 -15 21 -32 21 -39 0 -23 -41 -65 -65 -65 -34 0 -67 32 -67 63
0 64 73 90 111 41z m-175 -45 c24 -27 27 -38 22 -68 -12 -79 -101 -108 -157
-52 -32 32 -37 70 -15 110 32 58 101 62 150 10z m-145 -185 c12 -15 21 -32 21
-39 0 -23 -41 -65 -64 -65 -37 0 -66 28 -66 62 0 66 69 92 109 42z m241 6 c11
-11 20 -31 20 -45 0 -14 -9 -34 -20 -45 -11 -11 -31 -20 -45 -20 -14 0 -34 9
-45 20 -11 11 -20 31 -20 45 0 14 9 34 20 45 11 11 31 20 45 20 14 0 34 -9 45
-20z m-401 -130 c88 -45 135 -122 135 -225 0 -59 -4 -78 -27 -117 -101 -173
-346 -169 -440 7 -34 62 -31 175 6 237 31 53 97 103 154 117 50 13 127 4 172
-19z m691 0 c96 -49 153 -166 132 -270 -24 -115 -114 -192 -232 -198 -56 -3
-74 0 -116 21 -92 47 -143 128 -144 228 0 107 82 213 185 238 52 13 129 5 175
-19z m830 -200 c0 -11 -4 -20 -9 -20 -5 0 -16 -3 -25 -6 -11 -4 -16 0 -16 13
0 24 8 33 32 33 11 0 18 -7 18 -20z m-90 -19 c0 -17 -18 -31 -41 -31 -5 0 -9
11 -9 25 0 20 5 25 25 25 18 0 25 -5 25 -19z m-100 -20 c0 -17 -18 -31 -41
-31 -14 0 -11 38 4 43 25 11 37 7 37 -12z m-92 -23 c-4 -31 -48 -39 -48 -10 0
20 12 30 38 31 8 1 12 -8 10 -21z m-90 -43 c-12 -10 -48 -15 -48 -6 0 6 10 21
23 34 l22 22 3 -23 c2 -13 2 -25 0 -27z m212 -109 c0 -87 -4 -126 -12 -133 -7
-5 -76 -24 -153 -42 -77 -18 -153 -37 -169 -42 -15 -5 -32 -6 -37 -3 -5 3 -9
44 -9 92 l1 87 47 52 c47 51 49 52 167 81 181 46 165 54 165 -92z m-420 -160
c0 -39 -5 -67 -12 -73 -14 -11 -132 -38 -213 -48 -27 -4 -61 -9 -75 -11 -14
-3 11 13 54 36 81 42 192 116 215 144 24 28 31 17 31 -48z m580 4 c0 -11 -4
-20 -9 -20 -5 0 -16 -3 -25 -6 -12 -5 -16 0 -16 20 0 21 5 26 25 26 18 0 25
-5 25 -20z m-90 -20 c0 -11 -4 -20 -9 -20 -5 0 -16 -3 -25 -6 -12 -5 -16 0
-16 20 0 21 5 26 25 26 18 0 25 -5 25 -20z m-100 -19 c0 -17 -18 -31 -41 -31
-14 0 -11 38 4 43 25 11 37 7 37 -12z m-92 -23 c-4 -31 -48 -39 -48 -10 0 20
12 30 38 31 8 1 12 -8 10 -21z m-88 -22 c0 -17 -7 -25 -25 -28 -21 -4 -25 -1
-25 18 0 20 10 28 43 33 4 0 7 -10 7 -23z m-93 -30 c-3 -7 -15 -16 -26 -19
-17 -4 -21 -1 -21 18 0 17 6 25 23 27 24 3 32 -5 24 -26z m-97 -15 c0 -19 -25
-35 -40 -26 -7 4 -7 22 -1 43 1 1 10 2 21 2 13 0 20 -7 20 -19z m-90 -20 c0
-17 -18 -31 -41 -31 -10 0 -12 33 -2 43 14 15 43 7 43 -12z m-90 -16 c0 -20
-5 -25 -25 -25 -30 0 -36 36 -7 43 31 8 32 7 32 -18z m-92 -17 c-4 -30 -48
-39 -48 -10 0 24 8 32 32 32 14 0 19 -6 16 -22z m-93 -13 c0 -13 -8 -21 -22
-23 -19 -3 -23 1 -23 23 0 22 4 26 23 23 14 -2 22 -10 22 -23z m-95 0 c0 -24
-4 -29 -22 -30 -13 -1 -18 6 -18 22 0 16 6 23 20 23 11 0 20 -7 20 -15z m-91
-20 c-11 -9 -42 -8 -46 2 -5 13 40 23 46 10 1 -5 1 -10 0 -12z m-96 -2 c-7 -2
-21 -2 -30 0 -10 3 -4 5 12 5 17 0 24 -2 18 -5z"/>
</g>
</svg>
